<svg xmlns="http://www.w3.org/2000/svg" viewBox="0 0 1320 970" width="1320" height="970">
  <defs>
    <marker id="arrowA" markerWidth="10" markerHeight="7" refX="9" refY="3.5" orient="auto">
      <polygon points="0 0, 10 3.5, 0 7" fill="#7c3aed"/>
    </marker>
    <marker id="arrowB" markerWidth="10" markerHeight="7" refX="9" refY="3.5" orient="auto">
      <polygon points="0 0, 10 3.5, 0 7" fill="#10b981"/>
    </marker>
    <marker id="arrowC" markerWidth="10" markerHeight="7" refX="9" refY="3.5" orient="auto">
      <polygon points="0 0, 10 3.5, 0 7" fill="#2563eb"/>
    </marker>
    <marker id="arrowE" markerWidth="10" markerHeight="7" refX="9" refY="3.5" orient="auto">
      <polygon points="0 0, 10 3.5, 0 7" fill="#f97316"/>
    </marker>
    <marker id="arrowF" markerWidth="10" markerHeight="7" refX="9" refY="3.5" orient="auto">
      <polygon points="0 0, 10 3.5, 0 7" fill="#7c3aed"/>
    </marker>
    <marker id="arrowG" markerWidth="10" markerHeight="7" refX="9" refY="3.5" orient="auto">
      <polygon points="0 0, 10 3.5, 0 7" fill="#ef4444"/>
    </marker>
    <marker id="arrowH" markerWidth="10" markerHeight="7" refX="9" refY="3.5" orient="auto">
      <polygon points="0 0, 10 3.5, 0 7" fill="#6b7280"/>
    </marker>
    <filter id="shadowSoft" x="-20%" y="-20%" width="140%" height="160%">
      <feDropShadow dx="0" dy="3" stdDeviation="6" flood-color="#0f172a" flood-opacity="0.12"/>
    </filter>
    <filter id="shadowGlass" x="-20%" y="-20%" width="140%" height="160%">
      <feDropShadow dx="0" dy="10" stdDeviation="16" flood-color="#020617" flood-opacity="0.28"/>
    </filter>
    <style>
    text { font-family: 'Helvetica Neue', Helvetica, Arial, 'PingFang SC', 'Microsoft YaHei', 'Microsoft JhengHei', 'SimHei', sans-serif; }
    .title { font-size: 30px; font-weight: 700; fill: #111827; }
    .subtitle { font-size: 14px; font-weight: 500; fill: #6b7280; }
    .section { font-size: 13px; font-weight: 700; fill: #2563eb; letter-spacing: 1.4px; }
    .section-sub { font-size: 12px; font-weight: 500; fill: #94a3b8; }
    .node-title { font-size: 18px; font-weight: 700; fill: #111827; }
    .node-sub { font-size: 12px; font-weight: 500; fill: #6b7280; }
    .node-type { font-size: 12px; font-weight: 700; fill: #9ca3af; letter-spacing: 0.08em; }
    .arrow-label { font-size: 12px; font-weight: 600; fill: #6b7280; }
    .legend { font-size: 12px; font-weight: 500; fill: #6b7280; }
    .footnote { font-size: 12px; font-weight: 500; fill: #94a3b8; }
    </style>
  </defs>
  <rect width="1320.0" height="970.0" fill="#ffffff"/>
  <text x="660.0" y="56" text-anchor="middle" class="title">Spring AI Alibaba — Repository Architecture</text>
  <text x="660.0" y="82" text-anchor="middle" class="subtitle">How the project modules layer together, and where integrations attach</text>
  <rect x="40.0" y="110.0" width="1240.0" height="150.0" rx="16.0" fill="none" stroke="#dbe5f1" stroke-width="1.4" stroke-dasharray="6 5"/>
  <text x="58.0" y="134.0" class="section">DEVELOPER-FACING ENTRY POINTS</text>
  <text x="58.0" y="154.0" class="section-sub">Modules and surfaces contributors or adopters touch first</text>
  <rect x="40.0" y="290.0" width="1240.0" height="230.0" rx="16.0" fill="none" stroke="#dbe5f1" stroke-width="1.4" stroke-dasharray="6 5"/>
  <text x="58.0" y="314.0" class="section">APPLICATION FRAMEWORK</text>
  <text x="58.0" y="334.0" class="section-sub">High-level agent APIs plus opt-in Spring Boot extensions</text>
  <rect x="540.0" y="322.0" width="700.0" height="168.0" rx="16.0" fill="none" stroke="#dbe5f1" stroke-width="1.4" stroke-dasharray="6 5"/>
  <text x="558.0" y="346.0" class="section">SPRING BOOT STARTERS</text>
  <text x="558.0" y="366.0" class="section-sub">Attach cross-cutting capabilities to the framework/runtime</text>
  <rect x="40.0" y="550.0" width="1240.0" height="120.0" rx="16.0" fill="none" stroke="#dbe5f1" stroke-width="1.4" stroke-dasharray="6 5"/>
  <text x="58.0" y="574.0" class="section">RUNTIME FOUNDATION</text>
  <text x="58.0" y="594.0" class="section-sub">Lower-level orchestration and stateful workflow engine</text>
  <rect x="40.0" y="710.0" width="1240.0" height="132.0" rx="16.0" fill="none" stroke="#dbe5f1" stroke-width="1.4" stroke-dasharray="6 5"/>
  <text x="58.0" y="734.0" class="section">EXTERNAL INTEGRATIONS</text>
  <text x="58.0" y="754.0" class="section-sub">Platform services consumed by the repository modules</text>
  <path d="M 170.0,230.0 L 170.0,262.0 L 260.0,262.0 L 260.0,358.0 L 310.0,358.0" fill="none" stroke="#2563eb" stroke-width="2.4" marker-end="url(#arrowC)"/>
  <path d="M 390.0,230.0 L 390.0,278.0 L 310.0,278.0 L 310.0,358.0" fill="none" stroke="#2563eb" stroke-width="2.4" marker-end="url(#arrowC)"/>
  <path d="M 610.0,230.0 L 610.0,262.0 L 410.0,262.0 L 410.0,358.0 L 310.0,358.0" fill="none" stroke="#2563eb" stroke-width="2.4" marker-end="url(#arrowC)"/>
  <path d="M 310.0,456.0 L 310.0,502.0 L 660.0,502.0 L 660.0,578.0" fill="none" stroke="#2563eb" stroke-width="2.4" marker-end="url(#arrowC)"/>
  <path d="M 575.0,386.0 L 480.4,386.0 L 480.4,407.0 L 460.0,407.0" fill="none" stroke="#7c3aed" stroke-width="2.4" marker-end="url(#arrowA)"/>
  <path d="M 875.0,356.0 L 875.0,330.0 L 500.0,330.0 L 500.0,410.0 L 460.0,407.0" fill="none" stroke="#7c3aed" stroke-width="2.4" marker-end="url(#arrowA)"/>
  <path d="M 1085.0,356.0 L 1085.0,314.0 L 520.0,314.0 L 520.0,428.0 L 460.0,407.0" fill="none" stroke="#7c3aed" stroke-width="2.4" marker-end="url(#arrowA)"/>
  <path d="M 770.0,498.0 L 770.0,540.0 L 690.0,540.0 L 690.0,578.0 L 660.0,578.0" fill="none" stroke="#7c3aed" stroke-width="2.4" marker-end="url(#arrowA)"/>
  <path d="M 995.0,498.0 L 995.0,540.0 L 745.0,540.0 L 745.0,578.0 L 660.0,578.0" fill="none" stroke="#7c3aed" stroke-width="2.4" marker-end="url(#arrowA)"/>
  <path d="M 310.0,456.0 L 220.0,688.0 L 190.0,688.0 L 190.0,754.0" fill="none" stroke="#f97316" stroke-width="2.4" marker-end="url(#arrowE)"/>
  <path d="M 665.0,416.0 L 665.0,524.0 L 470.0,524.0 L 470.0,754.0" fill="none" stroke="#f97316" stroke-width="2.4" marker-end="url(#arrowE)"/>
  <path d="M 875.0,416.0 L 875.0,536.0 L 500.0,536.0 L 500.0,754.0 L 470.0,754.0" fill="none" stroke="#f97316" stroke-width="2.4" marker-end="url(#arrowE)"/>
  <path d="M 660.0,652.0 L 660.0,684.0 L 750.0,684.0 L 750.0,742.0" fill="none" stroke="#f97316" stroke-width="2.4" marker-end="url(#arrowE)"/>
  <path d="M 995.0,498.0 L 995.0,542.0 L 1040.0,542.0 L 1040.0,754.0" fill="none" stroke="#f97316" stroke-width="2.4" marker-end="url(#arrowE)"/>
  <rect x="80.0" y="162.0" width="180.0" height="68.0" rx="10.0" fill="#eff6ff" stroke="#93c5fd" stroke-width="1.8"/>
  <text x="170.0" y="180.0" text-anchor="middle" class="node-type">ENTRY</text>
  <text x="170.0" y="202.0" text-anchor="middle" class="node-title">Examples</text>
  <rect x="300.0" y="162.0" width="180.0" height="68.0" rx="10.0" fill="#eff6ff" stroke="#93c5fd" stroke-width="1.8"/>
  <text x="390.0" y="180.0" text-anchor="middle" class="node-type">UI</text>
  <text x="390.0" y="202.0" text-anchor="middle" class="node-title">Studio</text>
  <rect x="520.0" y="162.0" width="180.0" height="68.0" rx="10.0" fill="#eff6ff" stroke="#93c5fd" stroke-width="1.8"/>
  <text x="610.0" y="180.0" text-anchor="middle" class="node-type">DEV TOOL</text>
  <text x="610.0" y="202.0" text-anchor="middle" class="node-title">Sandbox</text>
  <rect x="740.0" y="162.0" width="196.0" height="68.0" rx="10.0" fill="#faf5ff" stroke="#c4b5fd" stroke-width="1.8"/>
  <text x="838.0" y="180.0" text-anchor="middle" class="node-type">COMPANION</text>
  <text x="838.0" y="202.0" text-anchor="middle" class="node-title">Admin Platform</text>
  <text x="838.0" y="224.0" text-anchor="middle" class="node-sub">visual dev · eval · MCP</text>
  <rect x="1000.0" y="162.0" width="220.0" height="68.0" rx="10.0" fill="#f9fafb" stroke="#d1d5db" stroke-width="1.8"/>
  <text x="1110.0" y="180.0" text-anchor="middle" class="node-type">SUPPORT</text>
  <text x="1110.0" y="202.0" text-anchor="middle" class="node-title">BOM</text>
  <text x="1110.0" y="224.0" text-anchor="middle" class="node-sub">dependency management</text>
  <rect x="160.0" y="358.0" width="300.0" height="98.0" rx="10.0" fill="#dbeafe" stroke="#2563eb" stroke-width="2.0" filter="url(#shadowSoft)"/>
  <rect x="166.0" y="364.0" width="288.0" height="86.0" rx="7.0" fill="none" stroke="#2563eb" stroke-width="1.2" opacity="0.65"/>
  <text x="310.0" y="376.0" text-anchor="middle" class="node-type">PRIMARY API</text>
  <text x="310.0" y="413.0" text-anchor="middle" class="node-title">Agent Framework</text>
  <text x="310.0" y="435.0" text-anchor="middle" class="node-sub">agents · patterns · context engineering</text>
  <rect x="575.0" y="356.0" width="180.0" height="60.0" rx="10.0" fill="#faf5ff" stroke="#c4b5fd" stroke-width="1.8"/>
  <text x="665.0" y="374.0" text-anchor="middle" class="node-type">STARTER</text>
  <text x="665.0" y="392.0" text-anchor="middle" class="node-title">A2A Nacos</text>
  <rect x="785.0" y="356.0" width="180.0" height="60.0" rx="10.0" fill="#faf5ff" stroke="#c4b5fd" stroke-width="1.8"/>
  <text x="875.0" y="374.0" text-anchor="middle" class="node-type">STARTER</text>
  <text x="875.0" y="392.0" text-anchor="middle" class="node-title">Config Nacos</text>
  <rect x="995.0" y="356.0" width="180.0" height="60.0" rx="10.0" fill="#faf5ff" stroke="#c4b5fd" stroke-width="1.8"/>
  <text x="1085.0" y="374.0" text-anchor="middle" class="node-type">STARTER</text>
  <text x="1085.0" y="392.0" text-anchor="middle" class="node-title">AgentScope</text>
  <rect x="680.0" y="438.0" width="180.0" height="60.0" rx="10.0" fill="#faf5ff" stroke="#c4b5fd" stroke-width="1.8"/>
  <text x="770.0" y="456.0" text-anchor="middle" class="node-type">STARTER</text>
  <text x="770.0" y="474.0" text-anchor="middle" class="node-title">Builtin Nodes</text>
  <rect x="890.0" y="438.0" width="210.0" height="60.0" rx="10.0" fill="#faf5ff" stroke="#c4b5fd" stroke-width="1.8"/>
  <text x="995.0" y="456.0" text-anchor="middle" class="node-type">STARTER</text>
  <text x="995.0" y="474.0" text-anchor="middle" class="node-title">Graph Observation</text>
  <rect x="510.0" y="578.0" width="300.0" height="74.0" rx="10.0" fill="#dcfce7" stroke="#16a34a" stroke-width="2.0" filter="url(#shadowSoft)"/>
  <rect x="516.0" y="584.0" width="288.0" height="62.0" rx="7.0" fill="none" stroke="#16a34a" stroke-width="1.2" opacity="0.65"/>
  <text x="660.0" y="596.0" text-anchor="middle" class="node-type">FOUNDATION</text>
  <text x="660.0" y="621.0" text-anchor="middle" class="node-title">Graph Core</text>
  <text x="660.0" y="643.0" text-anchor="middle" class="node-sub">workflow runtime · persistence · streaming</text>
  <rect x="80.0" y="754.0" width="220.0" height="70.0" rx="10.0" fill="#fff7ed" stroke="#fdba74" stroke-width="1.8"/>
  <text x="190.0" y="789.0" text-anchor="middle" class="node-title">Spring AI + Models</text>
  <text x="190.0" y="811.0" text-anchor="middle" class="node-sub">DashScope · OpenAI · DeepSeek</text>
  <path d="M 382.0 754.0 L 558.0 754.0 L 580.0 789.0 L 558.0 824.0 L 382.0 824.0 L 360.0 789.0 Z" fill="#fff7ed" stroke="#fdba74" stroke-width="2.0"/>
  <text x="470.0" y="789.0" text-anchor="middle" class="node-title">Nacos</text>
  <text x="470.0" y="811.0" text-anchor="middle" class="node-sub">A2A registry · dynamic config</text>
  <ellipse cx="750.0" cy="753.75" rx="55.0" ry="11.75" fill="#f0fdf4" stroke="#16a34a" stroke-width="2.2"/>
  <rect x="640.0" y="753.75" width="220.0" height="70.5" fill="#f0fdf4" stroke="#16a34a" stroke-width="2.2"/>
  <ellipse cx="750.0" cy="824.25" rx="55.0" ry="11.75" fill="#f0fdf4" stroke="#16a34a" stroke-width="2.2"/>
  <ellipse cx="750.0" cy="777.72" rx="55.0" ry="11.75" fill="none" stroke="#16a34a" stroke-opacity="0.45" stroke-width="1.2"/>
  <ellipse cx="750.0" cy="798.4" rx="55.0" ry="11.75" fill="none" stroke="#16a34a" stroke-opacity="0.25" stroke-width="1.2"/>
  <text x="750.0" y="783.0" text-anchor="middle" class="node-title">Persistence</text>
  <text x="750.0" y="807.0" text-anchor="middle" class="node-sub">Postgres · MySQL · Redis · file</text>
  <rect x="920.0" y="754.0" width="240.0" height="70.0" rx="10.0" fill="#fff7ed" stroke="#fdba74" stroke-width="1.8"/>
  <text x="1040.0" y="789.0" text-anchor="middle" class="node-title">Observability</text>
  <text x="1040.0" y="811.0" text-anchor="middle" class="node-sub">Micrometer · OpenTelemetry</text>
  <rect x="176.5" y="232.0" width="77" height="20" rx="6" fill="#ffffff" opacity="0.94"/>
  <text x="215.0" y="246.0" text-anchor="middle" class="arrow-label">builds on</text>
  <rect x="308.0" y="248.0" width="84" height="20" rx="6" fill="#ffffff" opacity="0.94"/>
  <text x="350.0" y="262.0" text-anchor="middle" class="arrow-label">depends on</text>
  <rect x="468.0" y="232.0" width="84" height="20" rx="6" fill="#ffffff" opacity="0.94"/>
  <text x="510.0" y="246.0" text-anchor="middle" class="arrow-label">tests with</text>
  <rect x="453.5" y="472.0" width="63" height="20" rx="6" fill="#ffffff" opacity="0.94"/>
  <text x="485.0" y="486.0" text-anchor="middle" class="arrow-label">runs on</text>
  <rect x="496.2" y="388.0" width="63" height="20" rx="6" fill="#ffffff" opacity="0.94"/>
  <text x="527.7" y="402.0" text-anchor="middle" class="arrow-label">extends</text>
  <rect x="698.5" y="510.0" width="63" height="20" rx="6" fill="#ffffff" opacity="0.94"/>
  <text x="730.0" y="524.0" text-anchor="middle" class="arrow-label">extends</text>
  <rect x="838.5" y="510.0" width="63" height="20" rx="6" fill="#ffffff" opacity="0.94"/>
  <text x="870.0" y="524.0" text-anchor="middle" class="arrow-label">extends</text>
  <rect x="223.0" y="558.0" width="84" height="20" rx="6" fill="#ffffff" opacity="0.94"/>
  <text x="265.0" y="572.0" text-anchor="middle" class="arrow-label">model APIs</text>
  <rect x="659.5" y="654.0" width="91" height="20" rx="6" fill="#ffffff" opacity="0.94"/>
  <text x="705.0" y="668.0" text-anchor="middle" class="arrow-label">checkpoints</text>
  <rect x="983.5" y="634.0" width="77" height="20" rx="6" fill="#ffffff" opacity="0.94"/>
  <text x="1022.0" y="648.0" text-anchor="middle" class="arrow-label">telemetry</text>
  <rect x="32.0" y="848.0" width="247" height="112" rx="10" fill="#ffffff" opacity="0.88"/>
  <line x1="42.0" y1="862.0" x2="72.0" y2="862.0" stroke="#2563eb" stroke-width="2.4" marker-end="url(#arrowC)"/>
  <text x="82.0" y="866.0" class="legend">Primary module dependency</text>
  <line x1="42.0" y1="884.0" x2="72.0" y2="884.0" stroke="#7c3aed" stroke-width="2.4" marker-end="url(#arrowA)"/>
  <text x="82.0" y="888.0" class="legend">Starter extends module</text>
  <line x1="42.0" y1="906.0" x2="72.0" y2="906.0" stroke="#f97316" stroke-width="2.4" marker-end="url(#arrowE)"/>
  <text x="82.0" y="910.0" class="legend">External integration</text>
  <line x1="42.0" y1="928.0" x2="72.0" y2="928.0" stroke="#6b7280" stroke-width="2.4" marker-end="url(#arrowH)"/>
  <text x="82.0" y="932.0" class="legend">Companion platform link</text>
  <text x="42.0" y="956.0" class="footnote">Repository/module view derived from README.md and Maven module dependencies</text>
</svg>